<?xml version="1.0" encoding="utf-8"?>
<!-- Generator: Adobe Illustrator 20.1.0, SVG Export Plug-In . SVG Version: 6.00 Build 0)  -->
<svg version="1.1" id="レイヤー_1" xmlns="http://www.w3.org/2000/svg" xmlns:xlink="http://www.w3.org/1999/xlink" x="0px"
	 y="0px" viewBox="0 0 240 100" style="enable-background:new 0 0 240 100;" xml:space="preserve">
<style type="text/css">
	.st0{fill:#9C9C9C;}
	.st1{fill:#258AC3;}
	.st2{fill:#9A9A9B;}
</style>
<g>
	<g>
		<path class="st0" d="M50,6c13.2,0,24,10.8,24,24v64H6V30C6,16.8,16.8,6,30,6H50 M50,0H30C13.5,0,0,13.5,0,30v66c0,2.2,1.8,4,4,4
			h72c2.2,0,4-1.8,4-4V30C80,13.5,66.5,0,50,0L50,0z"/>
	</g>
</g>
<g>
	<g>
		<path class="st1" d="M130,0h-20C93.5,0,80,13.5,80,30v66c0,2.2,1.8,4,4,4h72c2.2,0,4-1.8,4-4V30C160,13.5,146.5,0,130,0L130,0z"/>
	</g>
</g>
<g>
	<g>
		<path class="st2" d="M210,0h-20c-16.5,0-30,13.5-30,30v66c0,2.2,1.8,4,4,4h72c2.2,0,4-1.8,4-4V30C240,13.5,226.5,0,210,0L210,0z"
			/>
	</g>
</g>
</svg>
