<?xml version="1.0" encoding="utf-8"?>
<!-- Generator: Adobe Illustrator 20.0.0, SVG Export Plug-In . SVG Version: 6.00 Build 0)  -->
<svg version="1.1" id="レイヤー_1" xmlns="http://www.w3.org/2000/svg" xmlns:xlink="http://www.w3.org/1999/xlink" x="0px"
	 y="0px" viewBox="0 0 240 100" style="enable-background:new 0 0 240 100;" xml:space="preserve">
<style type="text/css">
	.st0{fill:#9A9A9B;}
	.st1{fill:#258AC3;}
</style>
<g>
	<g>
		<g>
			<path class="st0" d="M74,6v88H6V6H74 M74,0H6C2.7,0,0,2.7,0,6v88c0,3.3,2.7,6,6,6h68c3.3,0,6-2.7,6-6V6C80,2.7,77.3,0,74,0L74,0z
				"/>
		</g>
	</g>
</g>
<g>
	<g>
		<path class="st1" d="M154,100H86c-3.3,0-6-2.7-6-6V6c0-3.3,2.7-6,6-6h68c3.3,0,6,2.7,6,6v88C160,97.3,157.3,100,154,100z"/>
	</g>
</g>
<g>
	<g>
		<g>
			<path class="st0" d="M234,100h-68c-3.3,0-6-2.7-6-6V6c0-3.3,2.7-6,6-6h68c3.3,0,6,2.7,6,6v88C240,97.3,237.3,100,234,100z"/>
		</g>
	</g>
</g>
</svg>
