<?xml version="1.0" encoding="utf-8"?>
<!-- Generator: Adobe Illustrator 20.1.0, SVG Export Plug-In . SVG Version: 6.00 Build 0)  -->
<svg version="1.1" id="レイヤー_1" xmlns="http://www.w3.org/2000/svg" xmlns:xlink="http://www.w3.org/1999/xlink" x="0px"
	 y="0px" viewBox="0 0 240 100" style="enable-background:new 0 0 240 100;" xml:space="preserve">
<style type="text/css">
	.st0{fill:#99999A;}
	.st1{fill:#258AC3;}
	.st2{fill:#FFFFFF;}
</style>
<g>
	<path class="st0" d="M74,6v88H6V6H74 M74,0H6C2.7,0,0,2.7,0,6v88c0,3.3,2.7,6,6,6h68c3.3,0,6-2.7,6-6V6C80,2.7,77.3,0,74,0L74,0z"
		/>
	<g>
		<g>
			<g>
				<polygon class="st0" points="54,65.1 49.1,52.3 35.6,52.3 35.6,37 37,37 37,50.9 50,50.9 54.8,63.3 59,61.7 59.5,63 				"/>
			</g>
			<g>
				<polygon class="st0" points="53.4,66.6 48.3,53.4 34.5,53.4 34.5,35.8 38.2,35.8 38.2,49.7 50.8,49.7 55.5,61.8 59.7,60.2 
					61,63.7 				"/>
			</g>
		</g>
		<g>
			<g>
				<rect x="36.2" y="44.9" class="st0" width="11.4" height="1.4"/>
			</g>
			<g>
				<rect x="35.1" y="43.7" class="st0" width="13.6" height="3.7"/>
			</g>
		</g>
		<g>
			<g>
				<circle class="st0" cx="38.5" cy="35.1" r="3.8"/>
			</g>
			<g>
				<path class="st0" d="M38.5,40c-2.7,0-5-2.2-5-5s2.2-5,5-5c2.7,0,5,2.2,5,5S41.2,40,38.5,40z M38.5,32.4c-1.5,0-2.7,1.2-2.7,2.7
					c0,1.5,1.2,2.7,2.7,2.7c1.5,0,2.7-1.2,2.7-2.7C41.2,33.6,40,32.4,38.5,32.4z"/>
			</g>
		</g>
		<g>
			<g>
				<path class="st0" d="M36.8,68.8c-7,0-12.7-5.7-12.7-12.7c0-5.2,3.3-10,8.1-11.8l0.5,1.3c-4.3,1.7-7.2,5.9-7.2,10.5
					c0,6.2,5,11.3,11.3,11.3c3.9,0,7.5-2,9.6-5.4l1.2,0.7C45.3,66.5,41.3,68.8,36.8,68.8z"/>
			</g>
			<g>
				<path class="st0" d="M36.8,69.9c-7.6,0-13.8-6.2-13.8-13.8c0-5.7,3.6-10.9,8.9-12.9l1.1-0.4l1.3,3.4l-1.1,0.4
					c-3.9,1.5-6.5,5.3-6.5,9.4c0,5.6,4.5,10.1,10.1,10.1c3.5,0,6.8-1.8,8.6-4.8l0.6-1l3.1,1.9l-0.6,1C46.1,67.5,41.7,69.9,36.8,69.9
					z"/>
			</g>
		</g>
	</g>
</g>
<g>
	<path class="st1" d="M154,0H86c-3.3,0-6,2.7-6,6v88c0,3.3,2.7,6,6,6h68c3.3,0,6-2.7,6-6V6C160,2.7,157.3,0,154,0z"/>
	<g>
		<g>
			<g>
				<polygon class="st2" points="134,65.1 129.1,52.3 115.6,52.3 115.6,37 117,37 117,50.9 130,50.9 134.8,63.3 139,61.7 139.5,63 
									"/>
			</g>
			<g>
				<polygon class="st2" points="133.4,66.6 128.3,53.4 114.5,53.4 114.5,35.8 118.2,35.8 118.2,49.7 130.8,49.7 135.5,61.8 
					139.7,60.2 141,63.7 				"/>
			</g>
		</g>
		<g>
			<g>
				<rect x="116.2" y="44.9" class="st2" width="11.4" height="1.4"/>
			</g>
			<g>
				<rect x="115.1" y="43.7" class="st2" width="13.6" height="3.7"/>
			</g>
		</g>
		<g>
			<g>
				<circle class="st2" cx="118.5" cy="35.1" r="3.8"/>
			</g>
			<g>
				<path class="st2" d="M118.5,40c-2.7,0-5-2.2-5-5s2.2-5,5-5s5,2.2,5,5S121.2,40,118.5,40z M118.5,32.4c-1.5,0-2.7,1.2-2.7,2.7
					c0,1.5,1.2,2.7,2.7,2.7c1.5,0,2.7-1.2,2.7-2.7C121.2,33.6,120,32.4,118.5,32.4z"/>
			</g>
		</g>
		<g>
			<g>
				<path class="st2" d="M116.8,68.8c-7,0-12.7-5.7-12.7-12.7c0-5.2,3.3-10,8.1-11.8l0.5,1.3c-4.3,1.7-7.2,5.9-7.2,10.5
					c0,6.2,5,11.3,11.3,11.3c3.9,0,7.5-2,9.6-5.4l1.2,0.7C125.3,66.5,121.3,68.8,116.8,68.8z"/>
			</g>
			<g>
				<path class="st2" d="M116.8,69.9c-7.6,0-13.8-6.2-13.8-13.8c0-5.7,3.6-10.9,8.9-12.9l1.1-0.4l1.3,3.4l-1.1,0.4
					c-3.9,1.5-6.5,5.3-6.5,9.4c0,5.6,4.5,10.1,10.1,10.1c3.5,0,6.8-1.8,8.6-4.8l0.6-1l3.1,1.9l-0.6,1
					C126.1,67.5,121.7,69.9,116.8,69.9z"/>
			</g>
		</g>
	</g>
</g>
<g>
	<g>
		<path class="st0" d="M234,0h-68c-3.3,0-6,2.7-6,6v88c0,3.3,2.7,6,6,6h68c3.3,0,6-2.7,6-6V6C240,2.7,237.3,0,234,0z"/>
	</g>
	<g>
		<g>
			<g>
				<polygon class="st2" points="214,65.1 209.1,52.3 195.6,52.3 195.6,37 197,37 197,50.9 210,50.9 214.8,63.3 219,61.7 219.5,63 
									"/>
			</g>
			<g>
				<polygon class="st2" points="213.4,66.6 208.3,53.4 194.5,53.4 194.5,35.8 198.2,35.8 198.2,49.7 210.8,49.7 215.5,61.8 
					219.7,60.2 221,63.7 				"/>
			</g>
		</g>
		<g>
			<g>
				<rect x="196.2" y="44.9" class="st2" width="11.4" height="1.4"/>
			</g>
			<g>
				<rect x="195.1" y="43.7" class="st2" width="13.6" height="3.7"/>
			</g>
		</g>
		<g>
			<g>
				<circle class="st2" cx="198.5" cy="35.1" r="3.8"/>
			</g>
			<g>
				<path class="st2" d="M198.5,40c-2.7,0-5-2.2-5-5s2.2-5,5-5s5,2.2,5,5S201.2,40,198.5,40z M198.5,32.4c-1.5,0-2.7,1.2-2.7,2.7
					c0,1.5,1.2,2.7,2.7,2.7c1.5,0,2.7-1.2,2.7-2.7C201.2,33.6,200,32.4,198.5,32.4z"/>
			</g>
		</g>
		<g>
			<g>
				<path class="st2" d="M196.8,68.8c-7,0-12.7-5.7-12.7-12.7c0-5.2,3.3-10,8.1-11.8l0.5,1.3c-4.3,1.7-7.2,5.9-7.2,10.5
					c0,6.2,5,11.3,11.3,11.3c3.9,0,7.5-2,9.6-5.4l1.2,0.7C205.3,66.5,201.3,68.8,196.8,68.8z"/>
			</g>
			<g>
				<path class="st2" d="M196.8,69.9c-7.6,0-13.8-6.2-13.8-13.8c0-5.7,3.6-10.9,8.9-12.9l1.1-0.4l1.3,3.4l-1.1,0.4
					c-3.9,1.5-6.5,5.3-6.5,9.4c0,5.6,4.5,10.1,10.1,10.1c3.5,0,6.8-1.8,8.6-4.8l0.6-1l3.1,1.9l-0.6,1
					C206.1,67.5,201.7,69.9,196.8,69.9z"/>
			</g>
		</g>
	</g>
</g>
</svg>
