<?xml version="1.0" encoding="utf-8"?>
<!-- Generator: Adobe Illustrator 24.2.0, SVG Export Plug-In . SVG Version: 6.00 Build 0)  -->
<svg version="1.1" id="レイヤー_1" xmlns="http://www.w3.org/2000/svg" xmlns:xlink="http://www.w3.org/1999/xlink" x="0px"
	 y="0px" width="547.1px" height="104.7px" viewBox="0 0 547.1 104.7" style="enable-background:new 0 0 547.1 104.7;"
	 xml:space="preserve">
<style type="text/css">
	.st0{fill-rule:evenodd;clip-rule:evenodd;fill:#D82A17;}
	.st1{fill:#D82A17;}
	.st2{fill:#F2C81F;}
</style>
<g>
	<path class="st0" d="M202.6,80.9h-34.7l20.4-55.8h-29.7l-18.1,49.5c-6.8,18.5,9.7,18.3,9.7,18.3h65.3c0,0,16.6,0,16.8-18.3
		l0.3-26.2H203L202.6,80.9z M329.5,43.2l-51.3-0.1l3.7-18.3h-31.9l-9.7,49.6c-3.5,18.2,13.1,18.2,13.1,18.2h66.8
		c2.9,0,5.7-2.8,6.3-6.1c0.7-3.2-1.3-5.9-4.1-5.9h-51.3l4.8-25.6h51.3c2.8,0,5.7-2.8,6.4-6C334.2,45.9,332.4,43.2,329.5,43.2
		 M426.9,52.4h-24.2l5.9-15.7h21.3c2.9,0,5.8-2.8,6.4-6.1c0.7-3.2-1.3-5.9-4.1-5.9h-81.9c-2.9,0-5.8,2.7-6.4,5.9
		c-0.6,3.3,1.3,6.1,4.2,6.1h30.8L373,52.4h-29.6c-2.8,0-5.7,2.7-6.4,6c-0.6,3.2,1.3,6,4.2,6h27.3l-10.7,28.3h29.6l10.8-28.3h26.3
		c2.9,0,5.8-2.8,6.5-6C431.7,55.1,429.8,52.4,426.9,52.4 M529.3,31.2h-51.4l3.3-8.9h-29.7L432.3,73H462l11.3-29.8h19.2l-18.9,49.6
		l29.6-0.1l19-49.5h4.8c2.9,0,5.8-2.7,6.4-6C534.1,34,532.2,31.2,529.3,31.2 M335.3,16.4H329c-1.7,0-3.4,1.3-3.7,2.8L322,34.1
		c-0.3,1.5,0.8,2.8,2.5,2.8h6.3c1.7,0,3.4-1.3,3.7-2.8l3.2-14.9C338.2,17.6,337,16.4,335.3,16.4 M304.1,36.9h6.3
		c1.7,0,3.4-1.3,3.7-2.8l3.2-14.9c0.3-1.5-0.8-2.8-2.5-2.8h-6.3c-1.7,0-3.4,1.3-3.7,2.8l-3.2,14.9C301.3,35.6,302.4,36.9,304.1,36.9
		"/>
	<path class="st1" d="M543.8,32.6h-0.9l-0.6-1.7c-0.1-0.1-0.1-0.3-0.2-0.4c-0.1-0.1-0.2-0.2-0.3-0.3c-0.1-0.1-0.2-0.2-0.4-0.2
		c-0.1,0-0.3-0.1-0.4-0.1h-1.5v2.6h-0.8v-6.1h2.7c0.2,0,0.3,0,0.5,0c0.1,0,0.3,0,0.4,0.1c0.1,0,0.3,0.1,0.4,0.1
		c0.1,0.1,0.2,0.1,0.3,0.2c0.1,0.1,0.2,0.2,0.3,0.3c0.1,0.1,0.1,0.2,0.2,0.3c0,0.1,0.1,0.2,0.1,0.3c0,0.1,0,0.2,0,0.4
		c0,0.2,0,0.4-0.1,0.6c-0.1,0.2-0.1,0.3-0.3,0.5c-0.1,0.1-0.3,0.3-0.4,0.4c-0.2,0.1-0.4,0.2-0.6,0.2c0.2,0.1,0.4,0.2,0.6,0.4
		c0.2,0.2,0.3,0.4,0.4,0.7L543.8,32.6z M539.5,29.2h1.8c0.3,0,0.5,0,0.6-0.1c0.2,0,0.3-0.1,0.4-0.2c0.1-0.1,0.2-0.2,0.3-0.3
		c0-0.1,0.1-0.3,0.1-0.5c0-0.3-0.1-0.6-0.3-0.8c-0.2-0.2-0.5-0.3-1-0.3h-1.9V29.2z"/>
	<path class="st1" d="M541.2,35.5c-3.3,0-5.9-2.7-5.9-5.9s2.7-5.9,5.9-5.9c3.3,0,5.9,2.7,5.9,5.9S544.5,35.5,541.2,35.5z
		 M541.2,24.4c-2.8,0-5.1,2.3-5.1,5.1s2.3,5.1,5.1,5.1c2.8,0,5.1-2.3,5.1-5.1S544,24.4,541.2,24.4z"/>
</g>
<g>
	<path class="st1" d="M38.4,61.1V6.5c0-1.7-2-2.5-3.2-1.3L1.5,38.8c-1,1-1.5,2.3-1.5,3.6v57.1c0,2.8,2.3,5.2,5.2,5.2h57.1
		c1.4,0,2.7-0.5,3.6-1.5l33.6-33.6c1.2-1.2,0.3-3.2-1.3-3.2H43.5C40.7,66.3,38.4,64,38.4,61.1"/>
	<path class="st2" d="M68.6,50.3L68.6,50.3c-1.4,0-2.7-0.5-3.7-1.5L51.7,35.6c-1.9-1.9-2.3-5-0.6-7.1c2-2.4,5.5-2.5,7.7-0.4l7.4,7.4
		c1.3,1.3,3.5,1.3,4.9,0l32.9-33.7c1.9-1.9,5-2.3,7.1-0.6c2.4,2,2.5,5.5,0.4,7.7l-39.2,40C71.3,49.8,70,50.3,68.6,50.3"/>
</g>
</svg>
