<?xml version="1.0" encoding="utf-8"?>
<!-- Generator: Adobe Illustrator 20.1.0, SVG Export Plug-In . SVG Version: 6.00 Build 0)  -->
<svg version="1.1" xmlns="http://www.w3.org/2000/svg" xmlns:xlink="http://www.w3.org/1999/xlink" x="0px" y="0px"
	 viewBox="0 0 60 60" style="enable-background:new 0 0 60 60;" xml:space="preserve">
<style type="text/css">
	.st0{fill:#FFFFFF;}
	.st1{display:none;}
	.st2{display:inline;}
	.st3{display:inline;fill:#008CFF;}
	.st4{display:inline;fill:#FF0000;}
	.st5{display:inline;fill:#F7F7F7;}
</style>
<g id="印刷青">
	<g>
		<rect y="57" class="st0" width="60" height="3"/>
		<path class="st0" d="M51.5,60h-43V15.2h43V60z M11.5,57h37V18.2h-37V57z"/>
		<rect x="28.5" y="8.1" class="st0" width="3" height="20"/>
		<polygon class="st0" points="38.7,8.8 30,0.1 21.3,8.8 		"/>
	</g>
</g>
<g id="レイヤー_2" class="st1">
	<g class="st2">
		<path class="st0" d="M37.2,23.4H60L41.7,37.1l7,21.9L30,45.5L11.3,59l7-21.9L0,23.4h22.8L30,1.1L37.2,23.4z"/>
	</g>
</g>
<g id="レイヤー_3" class="st1">
	<g class="st2">
		<path class="st0" d="M56.8,60c-0.4-14.5-12.2-26.2-26.9-26.2C15.3,33.8,3.5,45.5,3.1,60H56.8z"/>
		<rect x="27.9" y="0" class="st0" width="4.1" height="20.7"/>
		
			<rect x="42.2" y="12.4" transform="matrix(0.1963 -0.9805 0.9805 0.1963 28.1505 63.316)" class="st0" width="21.1" height="4.1"/>
		<rect x="5.1" y="3.9" transform="matrix(0.9806 -0.1962 0.1962 0.9806 -2.7027 1.6908)" class="st0" width="4.1" height="21.1"/>
	</g>
</g>
<g id="レイヤー_4" class="st1">
	<path class="st3" d="M60,53.1H0L30.2,6.9L60,53.1z M3.9,50.9h52.1L30.2,10.8L3.9,50.9z"/>
</g>
<g id="レイヤー_5" class="st1">
	<path class="st4" d="M30,60C13.5,60,0,46.5,0,30C0,13.5,13.5,0,30,0s30,13.5,30,30C60,46.5,46.5,60,30,60z M30,2.5
		C14.8,2.5,2.5,14.8,2.5,30c0,15.2,12.3,27.5,27.5,27.5S57.5,45.2,57.5,30C57.5,14.8,45.2,2.5,30,2.5z"/>
</g>
<g id="レイヤー_6" class="st1">
	<rect x="-11.1" y="28.7" transform="matrix(0.7071 -0.7071 0.7071 0.7071 -12.4264 30)" class="st5" width="82.3" height="2.6"/>
	<rect x="28.7" y="-11.1" transform="matrix(0.7071 -0.7071 0.7071 0.7071 -12.4264 30)" class="st5" width="2.6" height="82.3"/>
</g>
<g id="レイヤー_7" class="st1">
	<g class="st2">
		<path class="st0" d="M40.7,58.2H4.9v-3.1h35.8c8.9,0,16.2-7.1,16.2-15.9v-4.4c0-8.7-7.2-15.9-16.2-15.9H4.9v-3.1h35.8
			c10.6,0,19.3,8.5,19.3,19v4.4C60,49.7,51.4,58.2,40.7,58.2z"/>
		<polygon class="st0" points="0,17.5 22.5,32.9 22.5,2 		"/>
	</g>
</g>
<g id="レイヤー_8" class="st1">
	<g class="st2">
		<path class="st0" d="M60,60H34.5V41.4h-9.1V60H0V22.8L30,1.4l30,21.4V60z M37.6,57H57V24.4L30,5.2L3,24.4V57h19.4V38.3h15.1V57z"
			/>
	</g>
</g>
</svg>
