<?xml version="1.0" encoding="utf-8"?>
<!-- Generator: Adobe Illustrator 20.1.0, SVG Export Plug-In . SVG Version: 6.00 Build 0)  -->
<svg version="1.1" id="レイヤー_1" xmlns="http://www.w3.org/2000/svg" xmlns:xlink="http://www.w3.org/1999/xlink" x="0px"
	 y="0px" viewBox="0 0 60 60" style="enable-background:new 0 0 60 60;" xml:space="preserve">
<style type="text/css">
	.st0{display:none;}
	.st1{display:inline;}
	.st2{fill:#00A0EA;}
	.st3{fill:#00A0E9;}
	.st4{fill:#FFFFFF;}
	.st5{display:inline;fill:#008CFF;}
	.st6{display:inline;fill:#FF0000;}
	.st7{display:inline;fill:#F7F7F7;}
</style>
<g id="印刷青" class="st0">
	<g class="st1">
		<rect y="57" class="st2" width="60" height="3"/>
		<path class="st2" d="M51.5,60h-43V15.2h43V60z M11.5,57h37V18.2h-37V57z"/>
		<rect x="28.5" y="8.1" class="st3" width="3" height="20"/>
		<polygon class="st3" points="38.7,8.8 30,0.1 21.3,8.8 		"/>
	</g>
</g>
<g id="レイヤー_2" class="st0">
	<g class="st1">
		<path class="st4" d="M37.2,23.4H60L41.7,37.1l7,21.9L30,45.5L11.3,59l7-21.9L0,23.4h22.8L30,1.1L37.2,23.4z"/>
	</g>
</g>
<g id="レイヤー_3" class="st0">
	<g class="st1">
		<path class="st4" d="M56.8,60c-0.4-14.5-12.2-26.2-26.9-26.2C15.3,33.8,3.5,45.5,3.1,60H56.8z"/>
		<rect x="27.9" y="0" class="st4" width="4.1" height="20.7"/>
		
			<rect x="42.1" y="12.4" transform="matrix(0.1963 -0.9805 0.9805 0.1963 28.1829 63.2468)" class="st4" width="21.1" height="4.1"/>
		<rect x="5.1" y="3.9" transform="matrix(0.9806 -0.1962 0.1962 0.9806 -2.6977 1.6825)" class="st4" width="4.1" height="21.1"/>
	</g>
</g>
<g id="レイヤー_4" class="st0">
	<path class="st5" d="M60,53.1H0L30.2,6.9L60,53.1z M3.9,50.9H56L30.2,10.8L3.9,50.9z"/>
</g>
<g id="レイヤー_5" class="st0">
	<path class="st6" d="M30,60C13.5,60,0,46.5,0,30S13.5,0,30,0s30,13.5,30,30S46.5,60,30,60z M30,2.5C14.8,2.5,2.5,14.8,2.5,30
		S14.8,57.5,30,57.5S57.5,45.2,57.5,30S45.2,2.5,30,2.5z"/>
</g>
<g id="レイヤー_6" class="st0">
	
		<rect x="-11.1" y="28.7" transform="matrix(0.7071 -0.7071 0.7071 0.7071 -12.3912 30.0144)" class="st7" width="82.3" height="2.6"/>
	
		<rect x="28.7" y="-11.1" transform="matrix(0.7071 -0.7071 0.7071 0.7071 -12.4412 30.0351)" class="st7" width="2.6" height="82.3"/>
</g>
<g id="レイヤー_7" class="st0">
	<g class="st1">
		<path class="st4" d="M40.7,58.2H4.9v-3.1h35.8c8.9,0,16.2-7.1,16.2-15.9v-4.4c0-8.7-7.2-15.9-16.2-15.9H4.9v-3.1h35.8
			c10.6,0,19.3,8.5,19.3,19v4.4C60,49.7,51.4,58.2,40.7,58.2z"/>
		<polygon class="st4" points="0,17.5 22.5,32.9 22.5,2 		"/>
	</g>
</g>
<g>
	<path class="st3" d="M60,60H34V41.7H26V60H0V22.7L30,1.3l30,21.4V60z M37.9,56H56V24.7L30,6.2L4,24.7V56h18.1V37.7h15.9V56z"/>
</g>
</svg>
