<?xml version="1.0" encoding="utf-8"?>
<!-- Generator: Adobe Illustrator 20.1.0, SVG Export Plug-In . SVG Version: 6.00 Build 0)  -->
<svg version="1.1" id="レイヤー_1" xmlns="http://www.w3.org/2000/svg" xmlns:xlink="http://www.w3.org/1999/xlink" x="0px"
	 y="0px" viewBox="0 0 300 100" style="enable-background:new 0 0 300 100;" xml:space="preserve">
<style type="text/css">
	.st0{clip-path:url(#SVGID_1_);}
	.st1{fill:#E2E1E1;}
	.st2{fill:#99999A;}
	.st3{clip-path:url(#SVGID_2_);}
	.st4{fill:#2881B6;}
	.st5{clip-path:url(#SVGID_3_);}
	.st6{fill:#FFFFFF;}
</style>
<g>
	<g>
		<g>
			<defs>
				<rect id="SVGID_7_" x="200" width="100" height="100"/>
			</defs>
			<clipPath id="SVGID_1_">
				<use xlink:href="#SVGID_7_"  style="overflow:visible;"/>
			</clipPath>
			<g class="st0">
				
					<rect x="263.8" y="46.1" transform="matrix(0.7071 -0.7071 0.7071 0.7071 66.3027 257.0195)" class="st1" width="159.2" height="4.8"/>
				
					<rect x="249.5" y="46.1" transform="matrix(0.7071 -0.7071 0.7071 0.7071 62.1185 246.9181)" class="st1" width="159.2" height="4.8"/>
				
					<rect x="235.2" y="46.1" transform="matrix(0.7071 -0.7071 0.7071 0.7071 57.9344 236.8166)" class="st1" width="159.2" height="4.8"/>
				
					<rect x="220.9" y="46.1" transform="matrix(0.7071 -0.7071 0.7071 0.7071 53.7502 226.7151)" class="st1" width="159.2" height="4.8"/>
				
					<rect x="206.7" y="46.1" transform="matrix(0.7071 -0.7071 0.7071 0.7071 49.566 216.6136)" class="st1" width="159.2" height="4.8"/>
				
					<rect x="192.4" y="46.1" transform="matrix(0.7071 -0.7071 0.7071 0.7071 45.3818 206.5122)" class="st1" width="159.2" height="4.8"/>
				
					<rect x="178.1" y="46.1" transform="matrix(0.7071 -0.7071 0.7071 0.7071 41.1977 196.4107)" class="st1" width="159.2" height="4.8"/>
				
					<rect x="163.8" y="46.1" transform="matrix(0.7071 -0.7071 0.7071 0.7071 37.0135 186.3092)" class="st1" width="159.2" height="4.8"/>
				
					<rect x="149.5" y="46.1" transform="matrix(0.7071 -0.7071 0.7071 0.7071 32.8293 176.2077)" class="st1" width="159.2" height="4.8"/>
				
					<rect x="135.2" y="46.1" transform="matrix(0.7071 -0.7071 0.7071 0.7071 28.6452 166.1063)" class="st1" width="159.2" height="4.8"/>
				
					<rect x="120.9" y="46.1" transform="matrix(0.7071 -0.7071 0.7071 0.7071 24.461 156.0048)" class="st1" width="159.2" height="4.8"/>
				
					<rect x="106.7" y="46.1" transform="matrix(0.7071 -0.7071 0.7071 0.7071 20.2768 145.9033)" class="st1" width="159.2" height="4.8"/>
				
					<rect x="92.4" y="46.1" transform="matrix(0.7071 -0.7071 0.7071 0.7071 16.0927 135.8018)" class="st1" width="159.2" height="4.8"/>
				
					<rect x="78.1" y="46.1" transform="matrix(0.7071 -0.7071 0.7071 0.7071 11.9085 125.7003)" class="st1" width="159.2" height="4.8"/>
			</g>
		</g>
	</g>
	<g>
		<g>
			<path class="st2" d="M260,10.1H240c-16.4,0-29.9,10.8-29.9,23.9v52.6c0,1.8,1.8,3.2,4,3.2h71.8c2.2,0,4-1.4,4-3.2V34.1
				C289.9,20.9,276.4,10.1,260,10.1L260,10.1z"/>
		</g>
	</g>
</g>
<g>
	<g>
		<g>
			<defs>
				<rect id="SVGID_9_" x="100" width="100" height="100"/>
			</defs>
			<clipPath id="SVGID_2_">
				<use xlink:href="#SVGID_9_"  style="overflow:visible;"/>
			</clipPath>
			<g class="st3">
				
					<rect x="163.8" y="46.1" transform="matrix(0.7071 -0.7071 0.7071 0.7071 37.0135 186.3092)" class="st1" width="159.2" height="4.8"/>
				
					<rect x="149.5" y="46.1" transform="matrix(0.7071 -0.7071 0.7071 0.7071 32.8293 176.2077)" class="st1" width="159.2" height="4.8"/>
				
					<rect x="135.2" y="46.1" transform="matrix(0.7071 -0.7071 0.7071 0.7071 28.6452 166.1063)" class="st1" width="159.2" height="4.8"/>
				
					<rect x="120.9" y="46.1" transform="matrix(0.7071 -0.7071 0.7071 0.7071 24.461 156.0048)" class="st1" width="159.2" height="4.8"/>
				
					<rect x="106.7" y="46.1" transform="matrix(0.7071 -0.7071 0.7071 0.7071 20.2768 145.9033)" class="st1" width="159.2" height="4.8"/>
				
					<rect x="92.4" y="46.1" transform="matrix(0.7071 -0.7071 0.7071 0.7071 16.0927 135.8018)" class="st1" width="159.2" height="4.8"/>
				
					<rect x="78.1" y="46.1" transform="matrix(0.7071 -0.7071 0.7071 0.7071 11.9085 125.7003)" class="st1" width="159.2" height="4.8"/>
				
					<rect x="63.8" y="46.1" transform="matrix(0.7071 -0.7071 0.7071 0.7071 7.7243 115.5989)" class="st1" width="159.2" height="4.8"/>
				
					<rect x="49.5" y="46.1" transform="matrix(0.7071 -0.7071 0.7071 0.7071 3.5402 105.4974)" class="st1" width="159.2" height="4.8"/>
				
					<rect x="35.2" y="46.1" transform="matrix(0.7071 -0.7071 0.7071 0.7071 -0.644 95.3959)" class="st1" width="159.2" height="4.8"/>
				
					<rect x="20.9" y="46.1" transform="matrix(0.7071 -0.7071 0.7071 0.7071 -4.8282 85.2944)" class="st1" width="159.2" height="4.8"/>
				
					<rect x="6.7" y="46.1" transform="matrix(0.7071 -0.7071 0.7071 0.7071 -9.0123 75.193)" class="st1" width="159.2" height="4.8"/>
				
					<rect x="-7.6" y="46.1" transform="matrix(0.7071 -0.7071 0.7071 0.7071 -13.1965 65.0915)" class="st1" width="159.2" height="4.8"/>
				
					<rect x="-21.9" y="46.1" transform="matrix(0.7071 -0.7071 0.7071 0.7071 -17.3807 54.99)" class="st1" width="159.2" height="4.8"/>
			</g>
		</g>
	</g>
	<g>
		<g>
			<path class="st4" d="M160,10.1H140c-16.4,0-29.9,10.8-29.9,23.9v52.6c0,1.8,1.8,3.2,4,3.2h71.8c2.2,0,4-1.4,4-3.2V34.1
				C189.9,20.9,176.4,10.1,160,10.1L160,10.1z"/>
		</g>
	</g>
</g>
<g>
	<g>
		<g>
			<defs>
				<rect id="SVGID_11_" x="0" width="100" height="100"/>
			</defs>
			<clipPath id="SVGID_3_">
				<use xlink:href="#SVGID_11_"  style="overflow:visible;"/>
			</clipPath>
			<g class="st5">
				
					<rect x="63.8" y="46.1" transform="matrix(0.7071 -0.7071 0.7071 0.7071 7.7239 115.5978)" class="st1" width="159.2" height="4.8"/>
				
					<rect x="49.5" y="46.1" transform="matrix(0.7071 -0.7071 0.7071 0.7071 3.5397 105.4964)" class="st1" width="159.2" height="4.8"/>
				
					<rect x="35.2" y="46.1" transform="matrix(0.7071 -0.7071 0.7071 0.7071 -0.6444 95.3949)" class="st1" width="159.2" height="4.8"/>
				
					<rect x="20.9" y="46.1" transform="matrix(0.7071 -0.7071 0.7071 0.7071 -4.8286 85.2934)" class="st1" width="159.2" height="4.8"/>
				
					<rect x="6.7" y="46.1" transform="matrix(0.7071 -0.7071 0.7071 0.7071 -9.0128 75.1919)" class="st1" width="159.2" height="4.8"/>
				
					<rect x="-7.6" y="46.1" transform="matrix(0.7071 -0.7071 0.7071 0.7071 -13.1969 65.0905)" class="st1" width="159.2" height="4.8"/>
				
					<rect x="-21.9" y="46.1" transform="matrix(0.7071 -0.7071 0.7071 0.7071 -17.3811 54.989)" class="st1" width="159.2" height="4.8"/>
				
					<rect x="-36.2" y="46.1" transform="matrix(0.7071 -0.7071 0.7071 0.7071 -21.5653 44.8875)" class="st1" width="159.2" height="4.8"/>
				
					<rect x="-50.5" y="46.1" transform="matrix(0.7071 -0.7071 0.7071 0.7071 -25.7494 34.786)" class="st1" width="159.2" height="4.8"/>
				
					<rect x="-64.8" y="46.1" transform="matrix(0.7071 -0.7071 0.7071 0.7071 -29.9336 24.6846)" class="st1" width="159.2" height="4.8"/>
				
					<rect x="-79.1" y="46.1" transform="matrix(0.7071 -0.7071 0.7071 0.7071 -34.1178 14.5831)" class="st1" width="159.2" height="4.8"/>
				
					<rect x="-93.3" y="46.1" transform="matrix(0.7071 -0.7071 0.7071 0.7071 -38.3019 4.4816)" class="st1" width="159.2" height="4.8"/>
				
					<rect x="-107.6" y="46.1" transform="matrix(0.7071 -0.7071 0.7071 0.7071 -42.4861 -5.6199)" class="st1" width="159.2" height="4.8"/>
				
					<rect x="-121.9" y="46.1" transform="matrix(0.7071 -0.7071 0.7071 0.7071 -46.6703 -15.7214)" class="st1" width="159.2" height="4.8"/>
			</g>
		</g>
	</g>
	<g>
		<g>
			<g>
				<path class="st6" d="M14.1,87.2c-0.8,0-1.3-0.4-1.3-0.5l0-52.6C12.8,22.3,25,12.8,40,12.8H60c15,0,27.2,9.5,27.2,21.2v52.6
					c0,0.1-0.5,0.5-1.3,0.5H14.1z"/>
				<path class="st2" d="M60,15.5c13.3,0,24.6,8.5,24.6,18.6v50.5h-69V34.1C15.5,24,26.7,15.5,40,15.5H60 M60,10.1H40
					c-16.4,0-29.9,10.8-29.9,23.9v52.6c0,1.8,1.8,3.2,4,3.2h71.8c2.2,0,4-1.4,4-3.2V34.1C89.9,20.9,76.4,10.1,60,10.1L60,10.1z"/>
			</g>
		</g>
	</g>
</g>
</svg>
