<?xml version="1.0" encoding="utf-8"?>
<!-- Generator: Adobe Illustrator 20.1.0, SVG Export Plug-In . SVG Version: 6.00 Build 0)  -->
<svg version="1.1" id="レイヤー_1" xmlns="http://www.w3.org/2000/svg" xmlns:xlink="http://www.w3.org/1999/xlink" x="0px"
	 y="0px" viewBox="0 0 300 100" style="enable-background:new 0 0 300 100;" xml:space="preserve">
<style type="text/css">
	.st0{clip-path:url(#SVGID_2_);}
	.st1{fill:#AFAFAF;}
	.st2{fill:#99999A;}
	.st3{clip-path:url(#SVGID_4_);}
	.st4{fill:#2881B6;}
	.st5{clip-path:url(#SVGID_6_);}
	.st6{fill:#FFFFFF;}
</style>
<g>
	<g>
		<g>
			<g>
				<defs>
					<rect id="SVGID_1_" x="200" width="100" height="100"/>
				</defs>
				<clipPath id="SVGID_2_">
					<use xlink:href="#SVGID_1_"  style="overflow:visible;"/>
				</clipPath>
				<g class="st0">
					
						<rect x="263.8" y="46.1" transform="matrix(0.7071 -0.7071 0.7071 0.7071 66.2923 257.0353)" class="st1" width="159.2" height="4.8"/>
					
						<rect x="249.5" y="46.1" transform="matrix(0.7071 -0.7071 0.7071 0.7071 62.098 246.9296)" class="st1" width="159.2" height="4.8"/>
					
						<rect x="235.2" y="46.1" transform="matrix(0.7071 -0.7071 0.7071 0.7071 57.9039 236.824)" class="st1" width="159.2" height="4.8"/>
					
						<rect x="220.9" y="46.1" transform="matrix(0.7071 -0.7071 0.7071 0.7071 53.7096 226.7184)" class="st1" width="159.2" height="4.8"/>
					
						<rect x="206.7" y="46.1" transform="matrix(0.7071 -0.7071 0.7071 0.7071 49.5861 216.642)" class="st1" width="159.2" height="4.8"/>
					
						<rect x="192.4" y="46.1" transform="matrix(0.7071 -0.7071 0.7071 0.7071 45.3918 206.5363)" class="st1" width="159.2" height="4.8"/>
					
						<rect x="178.1" y="46.1" transform="matrix(0.7071 -0.7071 0.7071 0.7071 41.1977 196.4307)" class="st1" width="159.2" height="4.8"/>
					
						<rect x="163.8" y="46.1" transform="matrix(0.7071 -0.7071 0.7071 0.7071 37.0035 186.3251)" class="st1" width="159.2" height="4.8"/>
					
						<rect x="149.5" y="46.1" transform="matrix(0.7071 -0.7071 0.7071 0.7071 32.8092 176.2194)" class="st1" width="159.2" height="4.8"/>
					
						<rect x="135.2" y="46.1" transform="matrix(0.7071 -0.7071 0.7071 0.7071 28.615 166.1138)" class="st1" width="159.2" height="4.8"/>
					
						<rect x="120.9" y="46.1" transform="matrix(0.7071 -0.7071 0.7071 0.7071 24.4208 156.0082)" class="st1" width="159.2" height="4.8"/>
					
						<rect x="106.7" y="46.1" transform="matrix(0.7071 -0.7071 0.7071 0.7071 20.2973 145.9318)" class="st1" width="159.2" height="4.8"/>
					
						<rect x="92.4" y="46.1" transform="matrix(0.7071 -0.7071 0.7071 0.7071 16.1031 135.8262)" class="st1" width="159.2" height="4.8"/>
					
						<rect x="78.1" y="46.1" transform="matrix(0.7071 -0.7071 0.7071 0.7071 11.9089 125.7205)" class="st1" width="159.2" height="4.8"/>
				</g>
			</g>
		</g>
	</g>
	<g>
		<g>
			<path class="st2" d="M260,10.1h-20c-16.4,0-29.9,10.8-29.9,23.9v52.6c0,1.8,1.8,3.2,4,3.2h71.8c2.2,0,4-1.4,4-3.2V34.1
				C289.9,20.9,276.4,10.1,260,10.1L260,10.1z"/>
		</g>
	</g>
</g>
<g>
	<g>
		<g>
			<g>
				<defs>
					<rect id="SVGID_3_" x="100" width="100" height="100"/>
				</defs>
				<clipPath id="SVGID_4_">
					<use xlink:href="#SVGID_3_"  style="overflow:visible;"/>
				</clipPath>
				<g class="st3">
					
						<rect x="163.8" y="46.1" transform="matrix(0.7071 -0.7071 0.7071 0.7071 37.0035 186.3251)" class="st1" width="159.2" height="4.8"/>
					
						<rect x="149.5" y="46.1" transform="matrix(0.7071 -0.7071 0.7071 0.7071 32.8092 176.2194)" class="st1" width="159.2" height="4.8"/>
					
						<rect x="135.2" y="46.1" transform="matrix(0.7071 -0.7071 0.7071 0.7071 28.615 166.1138)" class="st1" width="159.2" height="4.8"/>
					
						<rect x="120.9" y="46.1" transform="matrix(0.7071 -0.7071 0.7071 0.7071 24.4208 156.0082)" class="st1" width="159.2" height="4.8"/>
					
						<rect x="106.7" y="46.1" transform="matrix(0.7071 -0.7071 0.7071 0.7071 20.2973 145.9318)" class="st1" width="159.2" height="4.8"/>
					
						<rect x="92.4" y="46.1" transform="matrix(0.7071 -0.7071 0.7071 0.7071 16.1031 135.8262)" class="st1" width="159.2" height="4.8"/>
					
						<rect x="78.1" y="46.1" transform="matrix(0.7071 -0.7071 0.7071 0.7071 11.9089 125.7205)" class="st1" width="159.2" height="4.8"/>
					
						<rect x="63.8" y="46.1" transform="matrix(0.7071 -0.7071 0.7071 0.7071 7.7146 115.6149)" class="st1" width="159.2" height="4.8"/>
					
						<rect x="49.5" y="46.1" transform="matrix(0.7071 -0.7071 0.7071 0.7071 3.5204 105.5093)" class="st1" width="159.2" height="4.8"/>
					
						<rect x="35.2" y="46.1" transform="matrix(0.7071 -0.7071 0.7071 0.7071 -0.6738 95.4036)" class="st1" width="159.2" height="4.8"/>
					
						<rect x="20.9" y="46.1" transform="matrix(0.7071 -0.7071 0.7071 0.7071 -4.868 85.2979)" class="st1" width="159.2" height="4.8"/>
					
						<rect x="6.7" y="46.1" transform="matrix(0.7071 -0.7071 0.7071 0.7071 -8.9916 75.2216)" class="st1" width="159.2" height="4.8"/>
					
						<rect x="-7.6" y="46.1" transform="matrix(0.7071 -0.7071 0.7071 0.7071 -13.1858 65.116)" class="st1" width="159.2" height="4.8"/>
					
						<rect x="-21.9" y="46.1" transform="matrix(0.7071 -0.7071 0.7071 0.7071 -17.38 55.0103)" class="st1" width="159.2" height="4.8"/>
				</g>
			</g>
		</g>
	</g>
	<g>
		<g>
			<path class="st4" d="M160,10.1h-20c-16.4,0-29.9,10.8-29.9,23.9v52.6c0,1.8,1.8,3.2,4,3.2h71.8c2.2,0,4-1.4,4-3.2V34.1
				C189.9,20.9,176.4,10.1,160,10.1L160,10.1z"/>
		</g>
	</g>
</g>
<g>
	<g>
		<g>
			<g>
				<defs>
					<rect id="SVGID_5_" width="100" height="100"/>
				</defs>
				<clipPath id="SVGID_6_">
					<use xlink:href="#SVGID_5_"  style="overflow:visible;"/>
				</clipPath>
				<g class="st5">
					
						<rect x="63.8" y="46.1" transform="matrix(0.7071 -0.7071 0.7071 0.7071 7.7152 115.6143)" class="st1" width="159.2" height="4.8"/>
					
						<rect x="49.5" y="46.1" transform="matrix(0.7071 -0.7071 0.7071 0.7071 3.521 105.5086)" class="st1" width="159.2" height="4.8"/>
					
						<rect x="35.2" y="46.1" transform="matrix(0.7071 -0.7071 0.7071 0.7071 -0.6732 95.403)" class="st1" width="159.2" height="4.8"/>
					
						<rect x="20.9" y="46.1" transform="matrix(0.7071 -0.7071 0.7071 0.7071 -4.8674 85.2974)" class="st1" width="159.2" height="4.8"/>
					
						<rect x="6.7" y="46.1" transform="matrix(0.7071 -0.7071 0.7071 0.7071 -8.991 75.221)" class="st1" width="159.2" height="4.8"/>
					
						<rect x="-7.6" y="46.1" transform="matrix(0.7071 -0.7071 0.7071 0.7071 -13.1852 65.1154)" class="st1" width="159.2" height="4.8"/>
					
						<rect x="-21.9" y="46.1" transform="matrix(0.7071 -0.7071 0.7071 0.7071 -17.3794 55.0097)" class="st1" width="159.2" height="4.8"/>
					
						<rect x="-36.2" y="46.1" transform="matrix(0.7071 -0.7071 0.7071 0.7071 -21.5736 44.9041)" class="st1" width="159.2" height="4.8"/>
					
						<rect x="-50.5" y="46.1" transform="matrix(0.7071 -0.7071 0.7071 0.7071 -25.7678 34.7985)" class="st1" width="159.2" height="4.8"/>
					
						<rect x="-64.8" y="46.1" transform="matrix(0.7071 -0.7071 0.7071 0.7071 -29.9621 24.6928)" class="st1" width="159.2" height="4.8"/>
					
						<rect x="-79.1" y="46.1" transform="matrix(0.7071 -0.7071 0.7071 0.7071 -34.1563 14.5872)" class="st1" width="159.2" height="4.8"/>
					
						<rect x="-93.3" y="46.1" transform="matrix(0.7071 -0.7071 0.7071 0.7071 -38.2798 4.5108)" class="st1" width="159.2" height="4.8"/>
					
						<rect x="-107.6" y="46.1" transform="matrix(0.7071 -0.7071 0.7071 0.7071 -42.474 -5.5948)" class="st1" width="159.2" height="4.8"/>
					
						<rect x="-121.9" y="46.1" transform="matrix(0.7071 -0.7071 0.7071 0.7071 -46.6682 -15.7005)" class="st1" width="159.2" height="4.8"/>
				</g>
			</g>
		</g>
	</g>
	<g>
		<g>
			<g>
				<path class="st6" d="M14.1,87.2c-0.8,0-1.3-0.4-1.3-0.5V34.1C12.8,22.3,25,12.8,40,12.8h20c15,0,27.2,9.5,27.2,21.2v52.6
					c0,0.1-0.5,0.5-1.3,0.5L14.1,87.2L14.1,87.2z"/>
				<path class="st2" d="M60,15.5c13.3,0,24.6,8.5,24.6,18.6v50.5h-69V34.1C15.5,24,26.7,15.5,40,15.5H60 M60,10.1H40
					c-16.4,0-29.9,10.8-29.9,23.9v52.6c0,1.8,1.8,3.2,4,3.2h71.8c2.2,0,4-1.4,4-3.2V34.1C89.9,20.9,76.4,10.1,60,10.1L60,10.1z"/>
			</g>
		</g>
	</g>
</g>
</svg>
