<?xml version="1.0" encoding="utf-8"?>
<!-- Generator: Adobe Illustrator 20.1.0, SVG Export Plug-In . SVG Version: 6.00 Build 0)  -->
<svg version="1.1" id="レイヤー_1" xmlns="http://www.w3.org/2000/svg" xmlns:xlink="http://www.w3.org/1999/xlink" x="0px"
	 y="0px" viewBox="0 0 251.6 165.9" style="enable-background:new 0 0 251.6 165.9;" xml:space="preserve">
<style type="text/css">
	.st0{fill:#FFFFFF;}
</style>
<g>
	<g>
		<g>
			<path class="st0" d="M2.1,105.5c-0.4,0-0.7-0.2-0.9-0.6c-0.2-0.5,0-1.1,0.5-1.3c3.8-1.8,37.5-17.3,42.8-17.5
				c5.6-0.2,8.5,2.3,8.6,2.5c0,0,10.7,7.7,34.1-0.2l0.2,0c0.3,0,8.2-1,13.5-0.3l0.1,0l16,4.2c3.5,0.9,13,2.3,14.5-2
				c1.9-5.4-1.7-8.9-1.7-8.9c-0.1-0.1-5.1-4.9-9.5-6c-3.9-0.9-13.8-5.3-19-11.1c0,0-0.2-0.2-0.4-0.4c-0.4-0.5-1.2-1.5-1.5-2.1
				c-0.3-0.5-0.1-1.1,0.4-1.4c0.5-0.3,1.1-0.1,1.4,0.4c0.2,0.3,0.7,1,1.4,1.9c0.1,0.2,0.3,0.3,0.3,0.4c4.7,5.2,14.1,9.5,18,10.5
				c4.9,1.2,10.2,6.2,10.4,6.5c0.2,0.2,4.5,4.4,2.2,11c-2.4,6.8-16.3,3.4-16.9,3.2l-15.9-4.2c-4.7-0.6-11.9,0.2-12.8,0.3
				c-24.5,8.2-35.5,0.2-35.9-0.2c-0.2-0.1-2.6-2.2-7.3-2c-4.1,0.2-31.8,12.6-42,17.3C2.4,105.5,2.2,105.5,2.1,105.5z"/>
			<path class="st0" d="M102.1,64C102,64,102,64,102.1,64c-0.6,0-1-0.5-1-1.1c0.1-1.2,1.1-11.7,4.3-15.1c0.4-0.4,1-0.4,1.4,0
				c0.4,0.4,0.4,1,0,1.4c-2.3,2.5-3.5,10.8-3.8,13.9C103,63.6,102.6,64,102.1,64z"/>
			<path class="st0" d="M105.4,65.9c-0.2,0-0.5-0.1-0.7-0.3c-0.4-0.4-0.4-1-0.1-1.4c0.1-0.1,6.6-7.2,9.7-12.2c0-1.2,0-5.2,2.6-9.1
				c0.3-0.5,0.9-0.6,1.4-0.3c0.5,0.3,0.6,0.9,0.3,1.4c-2.6,4-2.2,8.2-2.2,8.2l0,0.3l-0.2,0.3c-3.2,5.1-9.9,12.4-10.1,12.7
				C105.9,65.7,105.7,65.9,105.4,65.9z"/>
			<path class="st0" d="M158.3,83.7c-7.4,0-15.1-8.8-16.3-10.2c-7.4-3.6-13.2-10.3-14.4-11.8c-9.3-2-12.9-8.7-13.1-8.9
				c-0.3-0.5-0.1-1.1,0.4-1.4c0.5-0.3,1.1-0.1,1.4,0.4l0,0c0,0.1,3.4,6.2,12.1,8l0.4,0.1l0.2,0.3c0.1,0.1,6.2,7.9,14.1,11.6l0.2,0.1
				l0.1,0.2c0.1,0.1,11.8,14.1,19.2,8.1c0.1-0.1,1.4-1,0.9-2.1l-0.1-0.4l0.1-0.3c0-0.2-0.1-1-1.7-2.4c-0.4-0.3-4.1-3.3-5.3-5.6
				c-1.3-1.3-2.9-2.8-3.5-3l-0.3-0.1l-12.8-15.7c0,0-1.9-3.2-4.3-4l-0.2-0.1c-0.1,0-6.9-4.4-12.1-9l-13-10.3
				c-0.1-0.1-5.7-6.2-11.4-3.7L83.2,31L56.5,42.8c-0.2,0.1-20.4,6.5-25.5,9.3l-0.1,0.1L1.8,63.2c-0.5,0.2-1.1-0.1-1.3-0.6
				c-0.2-0.5,0.1-1.1,0.6-1.3l29.1-11.1c5.2-2.8,24.4-8.9,25.7-9.4l26.5-11.7l15.7-7.5c6.7-3,12.9,3.3,13.6,4.1l12.9,10.2
				c4.8,4.2,11,8.3,11.8,8.8c2.8,1.1,4.8,4.3,5.2,4.8l12.3,15.1c1.4,0.7,3.7,3,4.1,3.5l0.1,0.1l0.1,0.2c0.7,1.6,3.7,4.2,4.8,5.1
				c2.1,1.9,2.4,3.3,2.4,4.1c0.6,1.9-0.8,3.5-1.6,4.2C162,83.1,160.2,83.7,158.3,83.7z"/>
			<path class="st0" d="M123.3,76.5c-0.3,0-0.6-0.1-0.8-0.4c-0.3-0.4-0.3-1.1,0.2-1.4c2.2-1.7,8.1-6.7,9-9.5
				c0.2-0.5,0.7-0.8,1.3-0.7c0.5,0.2,0.8,0.7,0.7,1.3c-1.2,3.9-8.8,9.8-9.7,10.5C123.7,76.5,123.5,76.5,123.3,76.5z"/>
			<path class="st0" d="M107.5,69.2c-0.2,0-0.3,0-0.5-0.1c-0.5-0.3-0.7-0.9-0.4-1.4c0.1-0.1,1.6-2.9,3.9-4.2l0.2-0.1
				c0.4-0.1,8.8-3,13.1-2.8c0.6,0,1,0.5,0.9,1.1c0,0.6-0.5,1-1.1,0.9c-3.7-0.2-11.4,2.3-12.3,2.6c-1.8,1.1-3.1,3.3-3.1,3.4
				C108.2,69,107.8,69.2,107.5,69.2z"/>
			<path class="st0" d="M128.2,61.8c-0.5,0-0.9-0.4-1-0.9c-0.1-0.5,0.4-1,0.9-1.1c2.5-0.2,5.1-3.5,5.9-4.8c0.3-0.5,0.9-0.6,1.4-0.3
				c0.5,0.3,0.6,0.9,0.3,1.4C135.6,56.3,132.2,61.4,128.2,61.8C128.2,61.8,128.2,61.8,128.2,61.8z"/>
			<path class="st0" d="M142.6,73.7c-0.5,0-1-0.4-1-1c0-0.6,0.4-1,1-1c2,0,4.5-2.4,5.4-3.3c0.4-0.4,1-0.4,1.4-0.1
				c0.4,0.4,0.4,1,0.1,1.4C149.1,70.1,145.8,73.6,142.6,73.7C142.6,73.7,142.6,73.7,142.6,73.7z"/>
		</g>
	</g>
	<polygon class="st0" points="219.8,165.9 128.6,140 141.6,72.8 143.6,73.1 130.9,138.6 218.3,163.4 249.2,4.2 157.4,2.1 
		146.9,56.1 144.9,55.7 155.8,0.1 251.6,2.2 251.4,3.4 	"/>
</g>
</svg>
