<?xml version="1.0" encoding="utf-8"?>
<!-- Generator: Adobe Illustrator 21.1.0, SVG Export Plug-In . SVG Version: 6.00 Build 0)  -->
<svg version="1.1" id="レイヤー_1" xmlns="http://www.w3.org/2000/svg" xmlns:xlink="http://www.w3.org/1999/xlink" x="0px"
	 y="0px" viewBox="0 0 442.6 379.5" style="enable-background:new 0 0 442.6 379.5;" xml:space="preserve">
<style type="text/css">
	.st0{fill:none;stroke:#4C4C4C;stroke-linejoin:round;stroke-miterlimit:10;}
</style>
<g>
	<path class="st0" d="M50.7,207l-13.2-83.7c0,0-5.1-17,21.2-32.2l165.5-82c0,0,23.6-8.8,46.2,3.1l153.4,95.4
		c0,0,23.3,13.7,15.3,35.8l-16.3,80.4l-3,15.7c0,0-2.3,3.8-10.3,10.3l-148,113.4c0,0-30.2,26.7-66.5,1.3L89.5,260.3l-30.7-30.9
		C58.8,229.3,53.2,222.8,50.7,207z"/>
	<path class="st0" d="M52.2,214.3L193,353.1c0,0,29.4,26.4,67,2l161.3-123.6"/>
	<path class="st0" d="M37.5,123.3c0,0,0.3,7.4,20.3,22.6l123.3,110.8c0,0,37.3,42.2,91.4,4.9L439,143.3"/>
	<path class="st0" d="M69.2,89.8l10.9,9.1l-7.1,3.8c0,0-13.9,8.6-2.5,18.8l140.4,120.6c0,0,14.6,14.5,36.9,1.3l3.2-2.5l13.1,10.8
		c0,0-37.7,30.7-73.7-3.3L52.2,126C52.2,126,31.9,106.8,69.2,89.8z"/>
	<polygon class="st0" points="102.6,72.6 113.9,81.4 199.3,38 187.8,30.2 	"/>
	<path class="st0" d="M216.4,16.1l11.6,7.5l5.1-2.5c0,0,12.8-6.9,24.7,0.6l146.7,93.7c0,0,19.5,11.8-1,23.2l12.3,8.8
		c0,0,33.7-17.2,2.2-39.6L268.3,14.4C268.3,14.4,246,0.3,216.4,16.1z"/>
	<polygon class="st0" points="285.8,217.4 298.7,227.8 387.3,167.2 373.6,158.3 	"/>
	<line class="st0" x1="69.2" y1="89.8" x2="102.6" y2="72.6"/>
	<line class="st0" x1="187.8" y1="30.2" x2="216.4" y2="16.1"/>
	<line class="st0" x1="76.4" y1="95.8" x2="110.1" y2="78.5"/>
	<polyline class="st0" points="77.8,100.2 83.7,108.8 121.3,89.8 115.1,80.8 	"/>
	<path class="st0" d="M108.4,80.2"/>
	<polyline class="st0" points="107.8,79.6 113.9,89.1 121.3,89.8 	"/>
	<line class="st0" x1="195" y1="35.1" x2="223.4" y2="20.7"/>
	<polyline class="st0" points="196.4,39.5 202.1,48.1 234.2,30.8 228.3,23.5 	"/>
	<polyline class="st0" points="220.6,22.1 226.8,31 234.2,30.8 	"/>
	<line class="st0" x1="264.1" y1="251.8" x2="298.7" y2="227.8"/>
	<line class="st0" x1="387.3" y1="167.2" x2="415.8" y2="147.4"/>
	<line class="st0" x1="259" y1="247.6" x2="293.4" y2="223.5"/>
	<line class="st0" x1="381.5" y1="163.5" x2="411" y2="144"/>
	<polyline class="st0" points="247.8,243.5 244,241 279.3,217.4 285.8,217.4 	"/>
	<polyline class="st0" points="368.8,161.5 364.2,159.8 396.3,139.3 403.5,138.6 	"/>
	<line class="st0" x1="279.3" y1="217.4" x2="289.2" y2="226.4"/>
	<line class="st0" x1="396.3" y1="139.3" x2="405.9" y2="147.4"/>
	<ellipse class="st0" cx="236.8" cy="167.5" rx="33.5" ry="23.6"/>
	<ellipse class="st0" cx="237.2" cy="164.7" rx="30.8" ry="20.7"/>
	<ellipse class="st0" cx="237.3" cy="164.6" rx="23.6" ry="15.7"/>
	<ellipse class="st0" cx="237.6" cy="168.2" rx="18" ry="12.2"/>
	<ellipse class="st0" cx="237.5" cy="170" rx="14.5" ry="10.4"/>
	<line class="st0" x1="39" y1="110.8" x2="18" y2="92.4"/>
	<path class="st0" d="M2,102.5l37.7,34.4"/>
	<line class="st0" x1="241.7" y1="35.8" x2="238.9" y2="136.9"/>
	<line class="st0" x1="276.2" y1="164.8" x2="401.1" y2="129.2"/>
	<line class="st0" x1="196.4" y1="164.8" x2="75" y2="114.1"/>
	<line class="st0" x1="233" y1="197.7" x2="230.5" y2="239.8"/>
	<line class="st0" x1="113.9" y1="89.1" x2="81.2" y2="105.1"/>
	<line class="st0" x1="226.8" y1="31" x2="199.8" y2="44.6"/>
</g>
</svg>
