<?xml version="1.0" encoding="utf-8"?>
<!-- Generator: Adobe Illustrator 20.1.0, SVG Export Plug-In . SVG Version: 6.00 Build 0)  -->
<svg version="1.1" id="レイヤー_1" xmlns="http://www.w3.org/2000/svg" xmlns:xlink="http://www.w3.org/1999/xlink" x="0px"
	 y="0px" viewBox="0 0 297 399" style="enable-background:new 0 0 297 399;" xml:space="preserve">
<style type="text/css">
	.st0{fill:#939393;}
	.st1{fill:#FFFFFF;}
</style>
<g>
	<path class="st0" d="M286.2,394H11.3c-4.1,0-7.5-3.4-7.5-7.5V12c0-4.1,3.4-7.5,7.5-7.5h274.9c4.1,0,7.5,3.4,7.5,7.5v374.5
		C293.7,390.7,290.3,394,286.2,394z M11.3,7.5c-2.5,0-4.5,2-4.5,4.5v374.5c0,2.5,2,4.5,4.5,4.5h274.9c2.5,0,4.5-2,4.5-4.5V12
		c0-2.5-2-4.5-4.5-4.5H11.3z"/>
	<path class="st0" d="M280.3,366H17.2V24.5h263.2V366z M20.2,363h257.2V27.5H20.2V363z"/>
	<path class="st0" d="M148.7,387.1c-4.6,0-8.3-3.7-8.3-8.3s3.7-8.3,8.3-8.3s8.3,3.7,8.3,8.3S153.3,387.1,148.7,387.1z M148.7,373.5
		c-2.9,0-5.3,2.4-5.3,5.3c0,2.9,2.4,5.3,5.3,5.3c2.9,0,5.3-2.4,5.3-5.3C154.1,375.9,151.7,373.5,148.7,373.5z"/>
	<path class="st0" d="M280.3,99.9H17.2V76.1h263.2V99.9z M20.2,96.9h257.2V79.1H20.2V96.9z"/>
	<path class="st0" d="M243.5,313.2H54V147.6h189.5V313.2z M57,310.2h183.5V150.6H57V310.2z"/>
	<path class="st0" d="M239.9,140.6H57.6c-2,0-3.5-1.6-3.5-3.5v-15.9c0-2,1.6-3.5,3.5-3.5h182.4c2,0,3.5,1.6,3.5,3.5V137
		C243.5,139,241.9,140.6,239.9,140.6z M57.6,120.6c-0.3,0-0.5,0.2-0.5,0.5V137c0,0.3,0.2,0.5,0.5,0.5h182.4c0.3,0,0.5-0.2,0.5-0.5
		v-15.9c0-0.3-0.2-0.5-0.5-0.5H57.6z"/>
	<path class="st0" d="M194.7,348.8h-91.8c-3.1,0-5.5-2.5-5.5-5.5v-11.9c0-3.1,2.5-5.5,5.5-5.5h91.8c3.1,0,5.5,2.5,5.5,5.5v11.9
		C200.2,346.3,197.7,348.8,194.7,348.8z M102.8,328.8c-1.4,0-2.5,1.1-2.5,2.5v11.9c0,1.4,1.1,2.5,2.5,2.5h91.8
		c1.4,0,2.5-1.1,2.5-2.5v-11.9c0-1.4-1.1-2.5-2.5-2.5H102.8z"/>
	<rect x="147.2" y="119.1" class="st0" width="3" height="20"/>
</g>
<g>
	<polygon class="st1" points="39.2,226.2 28.4,215.3 39.2,204.5 42.1,207.3 34.1,215.3 42.1,223.3 	"/>
	<polygon class="st1" points="256.3,226.2 253.4,223.3 261.4,215.3 253.4,207.3 256.3,204.5 267.1,215.3 	"/>
	<path class="st1" d="M36,243.1l0-4c1.8,0,3.6-0.2,5.3-0.6l0.9,3.9C40.1,242.9,38,243.1,36,243.1z M29.8,242.4c-2-0.5-4-1.1-5.9-2
		l1.7-3.6c1.6,0.8,3.3,1.4,5,1.8L29.8,242.4z M48,240.4l-1.7-3.6c1.6-0.8,3.1-1.7,4.5-2.8l2.5,3.1C51.6,238.3,49.9,239.5,48,240.4z
		 M18.6,237.1c-1.6-1.3-3.1-2.8-4.4-4.4l3.1-2.5c1.1,1.4,2.4,2.7,3.8,3.8L18.6,237.1z M57.7,232.6l-3.1-2.5c1.1-1.4,2.1-2.9,2.8-4.5
		l3.6,1.7C60.1,229.2,59,231,57.7,232.6z M10.9,227.4c-0.9-1.9-1.6-3.8-2.1-5.9l3.9-0.9c0.4,1.7,1,3.4,1.8,5L10.9,227.4z M63,221.5
		l-3.9-0.9c0.4-1.7,0.6-3.5,0.6-5.3v-0.1h4v0.1C63.7,217.4,63.5,219.5,63,221.5z M8.2,215.4L8.2,215.4c0-2.1,0.2-4.2,0.7-6.2
		l3.9,0.9c-0.4,1.7-0.6,3.5-0.6,5.2L8.2,215.4z M59.1,209.9c-0.4-1.7-1-3.4-1.8-5l3.6-1.8c0.9,1.9,1.6,3.8,2.1,5.9L59.1,209.9z
		 M14.5,205.1l-3.6-1.7c0.9-1.9,2-3.6,3.3-5.3l3.1,2.5C16.2,202,15.2,203.5,14.5,205.1z M54.5,200.4c-1.1-1.4-2.4-2.6-3.8-3.8
		l2.5-3.1c1.6,1.3,3.1,2.8,4.4,4.4L54.5,200.4z M21.1,196.8l-2.5-3.1c1.6-1.3,3.4-2.4,5.3-3.3l1.7,3.6
		C24,194.7,22.5,195.7,21.1,196.8z M46.2,193.9c-1.6-0.8-3.3-1.4-5-1.7l0.9-3.9c2,0.5,4,1.1,5.9,2L46.2,193.9z M30.6,192.2l-0.9-3.9
		c2-0.5,4.1-0.7,6.2-0.7l0,4C34.1,191.6,32.3,191.8,30.6,192.2z"/>
	<path class="st1" d="M261.6,243.1l0-4c1.8,0,3.6-0.2,5.3-0.6l0.9,3.9C265.7,242.9,263.7,243.1,261.6,243.1z M255.4,242.4
		c-2-0.5-4-1.1-5.9-2l1.7-3.6c1.6,0.8,3.3,1.4,5,1.8L255.4,242.4z M273.6,240.4l-1.7-3.6c1.6-0.8,3.1-1.7,4.5-2.8l2.5,3.1
		C277.3,238.3,275.5,239.5,273.6,240.4z M244.3,237.1c-1.6-1.3-3.1-2.8-4.4-4.4l3.1-2.5c1.1,1.4,2.4,2.7,3.8,3.8L244.3,237.1z
		 M283.3,232.6l-3.1-2.5c1.1-1.4,2.1-2.9,2.8-4.5l3.6,1.7C285.7,229.2,284.6,231,283.3,232.6z M236.6,227.4
		c-0.9-1.9-1.6-3.8-2.1-5.9l3.9-0.9c0.4,1.7,1,3.4,1.8,5L236.6,227.4z M288.6,221.5l-3.9-0.9c0.4-1.7,0.6-3.5,0.6-5.3v-0.1h4v0.1
		C289.3,217.4,289.1,219.5,288.6,221.5z M233.8,215.4L233.8,215.4c0-2.1,0.2-4.2,0.7-6.2l3.9,0.9c-0.4,1.7-0.6,3.5-0.6,5.2
		L233.8,215.4z M284.7,209.9c-0.4-1.7-1-3.4-1.8-5l3.6-1.8c0.9,1.9,1.6,3.8,2.1,5.9L284.7,209.9z M240.1,205.1l-3.6-1.7
		c0.9-1.9,2-3.6,3.3-5.3l3.1,2.5C241.8,202,240.9,203.5,240.1,205.1z M280.1,200.4c-1.1-1.4-2.4-2.6-3.8-3.8l2.5-3.1
		c1.6,1.3,3.1,2.8,4.4,4.4L280.1,200.4z M246.7,196.8l-2.5-3.1c1.6-1.3,3.4-2.4,5.3-3.3l1.7,3.6
		C249.6,194.7,248.1,195.7,246.7,196.8z M271.8,193.9c-1.6-0.8-3.3-1.4-5-1.7l0.9-3.9c2,0.5,4,1.1,5.9,2L271.8,193.9z M256.2,192.2
		l-0.9-3.9c2-0.5,4.1-0.7,6.2-0.7l0,4C259.7,191.6,257.9,191.8,256.2,192.2z"/>
</g>
</svg>
