<svg id="レイヤー_1" data-name="レイヤー 1" xmlns="http://www.w3.org/2000/svg" viewBox="0 0 244.27 176"><defs><style>.cls-1,.cls-3{fill:none;stroke:#fff;stroke-miterlimit:10;}.cls-2{fill:#fff;}.cls-3{stroke-linecap:square;}</style></defs><title>001</title><polyline class="cls-1" points="37.44 18.82 23.04 18.82 29.92 0.5 214.34 0.5 221.22 18.82 206.83 18.82"/><path class="cls-2" d="M178.14,33l15.73,101.43H52.31L67.64,33H178.14m.86-1H66.78L51.15,135.47H195L179,32Z" transform="translate(-0.02)"/><path class="cls-2" d="M165.33,42l1.36,11.58H150.31L149.5,42h15.83m.89-1h-17.8l1,13.58h18.44L166.22,41Z" transform="translate(-0.02)"/><path class="cls-2" d="M94.88,42l-.81,11.58H77.69L79,42H94.88M96,41h0Zm0,0H78.16L76.57,54.63H95L96,41Z" transform="translate(-0.02)"/><path class="cls-2" d="M90.5,104.81l-1.16,16.61H69.75l1.95-16.61H90.5m1.07-1h0Zm0,0H70.81l-2.18,18.61H90.28l1.3-18.61Z" transform="translate(-0.02)"/><path class="cls-2" d="M174.93,104.81l1.95,16.61H157.28l-1.16-16.61h18.81m.89-1H155l1.3,18.61H178l-2.18-18.61Z" transform="translate(-0.02)"/><polygon class="cls-3" points="243.63 175.5 0.63 175.5 39.85 10.9 204.42 10.9 243.63 175.5"/><polygon class="cls-1" points="98.09 81.59 89.77 81.59 90.29 74.91 98.47 74.91 98.09 81.59"/><polygon class="cls-1" points="89.03 88.65 80.57 88.65 81.25 81.74 89.57 81.74 89.03 88.65"/><polygon class="cls-1" points="106.33 88.65 97.87 88.65 98.27 81.74 106.59 81.74 106.33 88.65"/><polygon class="cls-1" points="106.85 74.76 98.67 74.76 99.04 68.3 107.09 68.3 106.85 74.76"/><polygon class="cls-1" points="90.12 74.76 81.94 74.76 82.57 68.3 90.63 68.3 90.12 74.76"/><polygon class="cls-1" points="127.56 81.59 119.24 81.59 119.29 74.91 127.47 74.91 127.56 81.59"/><polygon class="cls-1" points="119.01 88.65 110.55 88.65 110.74 81.74 119.06 81.74 119.01 88.65"/><polygon class="cls-1" points="136.3 88.65 127.84 88.65 127.75 81.74 136.07 81.74 136.3 88.65"/><polygon class="cls-1" points="135.84 74.76 127.66 74.76 127.57 68.3 135.62 68.3 135.84 74.76"/><polygon class="cls-1" points="119.11 74.76 110.93 74.76 111.1 68.3 119.16 68.3 119.11 74.76"/><polygon class="cls-1" points="127.27 58.81 119.4 58.81 119.44 52.83 127.19 52.83 127.27 58.81"/><polygon class="cls-1" points="119.18 65.11 111.19 65.11 111.36 58.94 119.23 58.94 119.18 65.11"/><polygon class="cls-1" points="135.51 65.11 127.53 65.11 127.44 58.94 135.31 58.94 135.51 65.11"/><polygon class="cls-1" points="135.1 52.7 127.36 52.7 127.28 46.91 134.91 46.91 135.1 52.7"/><polygon class="cls-1" points="119.27 52.7 111.53 52.7 111.69 46.91 119.31 46.91 119.27 52.7"/><polygon class="cls-1" points="127.89 106.86 119.07 106.86 119.12 99.36 127.79 99.36 127.89 106.86"/><polygon class="cls-1" points="118.81 114.81 109.83 114.81 110.04 107.03 118.87 107.03 118.81 114.81"/><polygon class="cls-1" points="137.18 114.81 128.2 114.81 128.09 107.03 136.92 107.03 137.18 114.81"/><polygon class="cls-1" points="136.66 99.19 127.98 99.19 127.89 91.94 136.41 91.94 136.66 99.19"/><polygon class="cls-1" points="118.93 99.19 110.26 99.19 110.46 91.94 118.98 91.94 118.93 99.19"/><polygon class="cls-1" points="157.04 81.59 148.72 81.59 148.29 74.91 156.48 74.91 157.04 81.59"/><polygon class="cls-1" points="148.98 88.65 140.52 88.65 140.22 81.74 148.54 81.74 148.98 88.65"/><polygon class="cls-1" points="166.28 88.65 157.82 88.65 157.23 81.74 165.56 81.74 166.28 88.65"/><polygon class="cls-1" points="164.83 74.76 156.65 74.76 156.1 68.3 164.15 68.3 164.83 74.76"/><polygon class="cls-1" points="148.1 74.76 139.92 74.76 139.64 68.3 147.69 68.3 148.1 74.76"/></svg>