<svg id="レイヤー_1" data-name="レイヤー 1" xmlns="http://www.w3.org/2000/svg" viewBox="0 0 401.95 260.75"><defs><style>.cls-1,.cls-2,.cls-3,.cls-5{fill:none;stroke:#fff;stroke-miterlimit:10;}.cls-1{stroke-width:2px;}.cls-2{stroke-width:4px;}.cls-3,.cls-5{stroke-width:1.5px;}.cls-4{fill:#fff;}.cls-5{stroke-linecap:square;}</style></defs><title>003</title><circle class="cls-1" cx="351.59" cy="210.39" r="49.36"/><polyline class="cls-2" points="327.96 205.19 340.82 223.02 379.57 196.43"/><polyline class="cls-3" points="54.1 27.1 33.19 27.1 43.09 0.75 308.44 0.75 318.34 27.1 297.58 27.1"/><path class="cls-4" d="M304.9,67.75l22.62,145.78H124L146,67.75H304.9m1.29-1.5H144.72L122.24,215h207L306.19,66.25Z" transform="translate(-48.63 -20.13)"/><path class="cls-4" d="M286.47,80.71l1.94,16.53H265l-1.16-16.53h22.66m1.33-1.5H262.2l1.37,19.53H290.1l-2.29-19.53Z" transform="translate(-48.63 -20.13)"/><path class="cls-4" d="M185.1,80.71l-1.15,16.53H160.5l1.94-16.53H185.1m1.61-1.5h0Zm0,0H161.1l-2.29,19.53h26.53l1.36-19.53Z" transform="translate(-48.63 -20.13)"/><path class="cls-4" d="M178.8,171l-1.66,23.77H149.07L151.86,171H178.8m1.61-1.5h0Zm0,0H150.52l-3.14,26.77h31.15l1.87-26.77Z" transform="translate(-48.63 -20.13)"/><path class="cls-4" d="M298.41,171l2.79,23.77H273.12L271.47,171h26.94m1.33-1.5H269.86l1.87,26.77h31.15l-3.14-26.77Z" transform="translate(-48.63 -20.13)"/><polyline class="cls-5" points="313.65 252.48 0.95 252.48 57.37 15.71 294.16 15.71 328.22 158.63"/><polygon class="cls-3" points="141.17 117.39 129.2 117.39 129.95 107.78 141.72 107.78 141.17 117.39"/><polygon class="cls-3" points="128.14 127.54 115.97 127.54 116.94 117.61 128.92 117.61 128.14 127.54"/><polygon class="cls-3" points="153.03 127.54 140.85 127.54 141.42 117.61 153.4 117.61 153.03 127.54"/><polygon class="cls-3" points="153.77 107.58 142 107.58 142.53 98.28 154.12 98.28 153.77 107.58"/><polygon class="cls-3" points="129.7 107.58 117.93 107.58 118.84 98.28 130.43 98.28 129.7 107.58"/><polygon class="cls-3" points="183.58 117.39 171.61 117.39 171.67 107.78 183.45 107.78 183.58 117.39"/><polygon class="cls-3" points="171.27 127.54 159.09 127.54 159.37 117.61 171.34 117.61 171.27 127.54"/><polygon class="cls-3" points="196.15 127.54 183.98 127.54 183.84 117.61 195.82 117.61 196.15 127.54"/><polygon class="cls-3" points="195.48 107.58 183.71 107.58 183.58 98.28 195.17 98.28 195.48 107.58"/><polygon class="cls-3" points="171.41 107.58 159.64 107.58 159.9 98.28 171.48 98.28 171.41 107.58"/><polygon class="cls-3" points="183.15 84.62 171.84 84.62 171.89 76.03 183.04 76.03 183.15 84.62"/><polygon class="cls-3" points="171.52 93.68 160.02 93.68 160.26 84.81 171.58 84.81 171.52 93.68"/><polygon class="cls-3" points="195.02 93.68 183.52 93.68 183.4 84.81 194.72 84.81 195.02 93.68"/><polygon class="cls-3" points="194.42 75.84 183.28 75.84 183.17 67.51 194.14 67.51 194.42 75.84"/><polygon class="cls-3" points="171.65 75.84 160.51 75.84 160.74 67.51 171.71 67.51 171.65 75.84"/><polygon class="cls-3" points="184.05 153.75 171.35 153.75 171.43 142.95 183.91 142.95 184.05 153.75"/><polygon class="cls-3" points="170.99 165.18 158.06 165.18 158.37 153.99 171.07 153.99 170.99 165.18"/><polygon class="cls-3" points="197.41 165.18 184.49 165.18 184.34 153.99 197.04 153.99 197.41 165.18"/><polygon class="cls-3" points="196.66 142.71 184.18 142.71 184.04 132.28 196.31 132.28 196.66 142.71"/><polygon class="cls-3" points="171.15 142.71 158.68 142.71 158.96 132.28 171.23 132.28 171.15 142.71"/><polygon class="cls-3" points="225.98 117.39 214.01 117.39 213.4 107.78 225.18 107.78 225.98 117.39"/><polygon class="cls-3" points="214.39 127.54 202.22 127.54 201.79 117.61 213.76 117.61 214.39 127.54"/><polygon class="cls-3" points="239.28 127.54 227.1 127.54 226.27 117.61 238.24 117.61 239.28 127.54"/><polygon class="cls-3" points="237.19 107.58 225.42 107.58 224.64 98.28 236.22 98.28 237.19 107.58"/><polygon class="cls-3" points="213.12 107.58 201.35 107.58 200.95 98.28 212.53 98.28 213.12 107.58"/></svg>